<svg id="Component_7_4" data-name="Component 7 – 4" xmlns="http://www.w3.org/2000/svg" xmlns:xlink="http://www.w3.org/1999/xlink" width="25" height="32" viewBox="0 0 12.769 12.769">
  <defs>
    <linearGradient id="linear-gradient" x1="0.854" y1="0.146" x2="0.146" y2="0.854" gradientUnits="objectBoundingBox">
      <stop offset="0.001" stop-color="#fbe18a"/>
      <stop offset="0.209" stop-color="#fcbb45"/>
      <stop offset="0.376" stop-color="#f75274"/>
      <stop offset="0.524" stop-color="#d53692"/>
      <stop offset="0.739" stop-color="#8f39ce"/>
      <stop offset="1" stop-color="#5b4fe9"/>
    </linearGradient>
  </defs>
  <circle id="Ellipse_14" data-name="Ellipse 14" cx="6.385" cy="6.385" r="6.385" fill="url(#linear-gradient)"/>
  <g id="Group_13" data-name="Group 13" transform="translate(2.642 2.633)">
    <g id="Group_12" data-name="Group 12">
      <path id="Path_54" data-name="Path 54" d="M10.591-38.06a.439.439,0,0,0-.439.439.439.439,0,0,0,.439.439.439.439,0,0,0,.439-.439A.439.439,0,0,0,10.591-38.06Z" transform="translate(-4.866 39.397)" fill="#fff"/>
      <path id="Path_55" data-name="Path 55" d="M4.31-36.771a1.846,1.846,0,0,0-1.844,1.844A1.846,1.846,0,0,0,4.31-33.084a1.846,1.846,0,0,0,1.844-1.844A1.846,1.846,0,0,0,4.31-36.771Zm0,3.025a1.182,1.182,0,0,1-1.181-1.181A1.182,1.182,0,0,1,4.31-36.108a1.182,1.182,0,0,1,1.181,1.181A1.183,1.183,0,0,1,4.31-33.746Z" transform="translate(-0.536 38.67)" fill="#fff"/>
      <path id="Path_56" data-name="Path 56" d="M3.283-33.635H.295a2.251,2.251,0,0,1-2.249-2.248v-2.989A2.251,2.251,0,0,1,.295-41.121H3.283a2.251,2.251,0,0,1,2.249,2.249v2.989A2.251,2.251,0,0,1,3.283-33.635ZM.295-40.417A1.546,1.546,0,0,0-1.25-38.872v2.989A1.546,1.546,0,0,0,.295-34.339H3.283a1.546,1.546,0,0,0,1.544-1.544v-2.989a1.546,1.546,0,0,0-1.544-1.544Z" transform="translate(1.954 41.121)" fill="#fff"/>
    </g>
  </g>
</svg>
