<svg id="Component_21_1" data-name="Component 21 – 1" xmlns="http://www.w3.org/2000/svg" xmlns:xlink="http://www.w3.org/1999/xlink" width="65.278" height="31.491" viewBox="0 0 48.278 51.491">
  <defs>
    <clipPath id="clip-path">
      <rect id="Rectangle_10" data-name="Rectangle 10" width="48.278" height="51.491" fill="none"/>
    </clipPath>
  </defs>
  <g id="Group_27" data-name="Group 27" clip-path="url(#clip-path)">
    <path id="Path_79" data-name="Path 79" d="M127.161,43.674a12.53,12.53,0,0,1,5.844,1.2,6.831,6.831,0,0,1,3.8,4.723,12.837,12.837,0,0,1,.369,4.236,10.037,10.037,0,0,1-1.464,4.612,6.442,6.442,0,0,1-2.742,2.32,11.566,11.566,0,0,1-3.833,1.027,11.8,11.8,0,0,1-5.348-.608,7.585,7.585,0,0,1-4.42-3.619,8.977,8.977,0,0,1-.944-3.291,13.266,13.266,0,0,1,.4-4.982,6.823,6.823,0,0,1,3.514-4.359,11.11,11.11,0,0,1,4.821-1.261m3.66,9.015a16.736,16.736,0,0,0-.238-2.681,2.138,2.138,0,0,0-1.684-1.846,4.028,4.028,0,0,0-1.844-.052,2.92,2.92,0,0,0-1.284.5,2.2,2.2,0,0,0-.78,1.661q-.11,1.694-.136,3.393a7.829,7.829,0,0,0,.322,2.281,1.863,1.863,0,0,0,1.239,1.32,4.034,4.034,0,0,0,2.3.134,2.346,2.346,0,0,0,1.459-.787,2.268,2.268,0,0,0,.462-1.2c.077-.909.126-1.82.187-2.73" transform="translate(-88.944 -32.821)" fill="#105bab"/>
    <path id="Path_80" data-name="Path 80" d="M53.081,60.312c0,.39,0,.7,0,1.017,0,.115-.018.194-.166.194-1.213-.005-2.426-.005-3.64-.007a.284.284,0,0,1-.062-.02V55.129a1.828,1.828,0,0,1,.192-.019c1.04,0,2.08,0,3.12,0a.334.334,0,0,1,.251.113A5.148,5.148,0,0,0,55.8,57.5a6.974,6.974,0,0,0,3.774.156,2.051,2.051,0,0,0,.508-.186.445.445,0,0,0,.094-.787,3.2,3.2,0,0,0-.9-.437q-2.773-.858-5.557-1.68a7.043,7.043,0,0,1-3.74-2.423,4.334,4.334,0,0,1-.912-2.415,5.921,5.921,0,0,1,.478-2.858,4.834,4.834,0,0,1,2.56-2.4,8.543,8.543,0,0,1,4.123-.723c.743.043,1.484.164,2.221.281A7.6,7.6,0,0,1,61.077,45.1a.707.707,0,0,0,.191.088c.107.025.184,0,.181-.14,0-.213,0-.426,0-.638,0-.143.058-.194.2-.194q1.678,0,3.356,0c.114,0,.193.017.193.166q-.005,2.848,0,5.7a.327.327,0,0,1-.026.079c-.067.006-.135.017-.2.017-1.064,0-2.127,0-3.191,0a.392.392,0,0,1-.284-.111,5.858,5.858,0,0,0-3.514-2.183,8.146,8.146,0,0,0-2.533-.2,1.577,1.577,0,0,0-.76.274.581.581,0,0,0,.042,1.017,2.585,2.585,0,0,0,.644.286c2.143.633,4.319,1.169,6.424,1.909a5.621,5.621,0,0,1,3.845,4.12,5.166,5.166,0,0,1-3.146,5.945,10.38,10.38,0,0,1-7.033.126,9.638,9.638,0,0,1-2.029-.889c-.091-.052-.192-.085-.346-.153" transform="translate(-36.86 -32.865)" fill="#105bab"/>
    <path id="Path_81" data-name="Path 81" d="M.014,48.729C.007,48.657,0,48.619,0,48.581c.006-1.307.016-2.615.015-3.922,0-.214.112-.215.268-.215q5.14,0,10.28,0h.284c.4,0,.4,0,.4.407.006,1.2.008,2.41.024,3.615,0,.207-.053.271-.264.267-.693-.013-1.387,0-2.08-.008-.2,0-.282.046-.281.261q.008,4.289,0,8.578c0,.205.067.27.274.267.693-.012,1.387,0,2.08-.008.183,0,.25.05.249.239q-.009,1.879,0,3.757c0,.187-.063.239-.247.239q-5.365-.007-10.73,0c-.2,0-.257-.06-.256-.255q.01-1.855,0-3.71c0-.2.054-.275.267-.271.685.012,1.371,0,2.056.008.191,0,.262-.051.262-.252q-.008-4.312,0-8.625c0-.2-.072-.237-.249-.234-.677.01-1.355.008-2.032.01H.014" transform="translate(0 -33.4)" fill="#105bab"/>
    <path id="Path_82" data-name="Path 82" d="M26.931,123.038a.683.683,0,0,1,.912.247,19.31,19.31,0,0,0,3.613,3.845.457.457,0,0,0,.6.044c.478-.289.966-.563,1.448-.846.266-.157.285-.281.1-.529-.559-.732-1.119-1.463-1.671-2.2a6.6,6.6,0,0,1-.343-.564.7.7,0,0,1,.922.254c.584.771,1.186,1.53,1.777,2.3.138.178.273.186.488.105.971-.366,1.952-.708,2.932-1.052.319-.112.327-.109.184-.425s-.29-.628-.431-.944a2.56,2.56,0,0,1-.085-.288,5.77,5.77,0,0,1,.586.007c.058.006.124.087.158.15.177.333.352.669.514,1.01a.242.242,0,0,0,.3.152q1.7-.231,3.393-.45a6.332,6.332,0,0,1,.847-.063c.208,0,.257-.105.271-.271,0-.047,0-.095,0-.142.01-.125,0-.351.04-.359a2.2,2.2,0,0,1,.56-.015c.029,0,.066.064.079.105a.606.606,0,0,1,.013.164c.008.494.012.457.514.516,1.328.155,2.653.335,3.977.528.2.029.283-.013.36-.181.134-.293.3-.573.424-.869a.387.387,0,0,1,.467-.284,2.644,2.644,0,0,0,.358,0c-.128.331-.232.608-.342.881-.067.168-.146.331-.216.5-.049.118-.014.183.115.228q1.559.548,3.113,1.109a.236.236,0,0,0,.3-.109c.581-.744,1.172-1.481,1.739-2.236.291-.387.436-.461.972-.328a4.35,4.35,0,0,1-.237.4c-.579.785-1.159,1.569-1.748,2.347-.2.268-.208.317.083.485.512.295,1.032.575,1.537.881a.467.467,0,0,0,.616-.063,18.785,18.785,0,0,0,2.489-2.483c.382-.46.745-.937,1.1-1.42a.384.384,0,0,1,.414-.187c.128.021.26.025.4.037A19.638,19.638,0,0,1,44.4,132.161a20.016,20.016,0,0,1-17.468-9.123m17.2,3.634h.011q0,.98,0,1.96c0,.117-.017.242.157.264.452.058.9.121,1.356.184a.377.377,0,0,0,.38-.172,26.789,26.789,0,0,0,2.329-3.55c.175-.325.163-.341-.2-.422a18.761,18.761,0,0,0-3.624-.44c-.4-.01-.406-.021-.407.38,0,.6,0,1.2,0,1.8m-.7.048h-.014q0-.991,0-1.982c0-.14-.009-.266-.211-.258a19.273,19.273,0,0,0-3.854.477c-.247.06-.271.12-.136.366a24.159,24.159,0,0,0,2.38,3.6.362.362,0,0,0,.363.161c.419-.063.838-.132,1.259-.184.172-.021.219-.1.217-.262-.007-.637,0-1.274,0-1.912M38.275,125.2c-.1.025-.159.033-.211.051-.888.317-1.778.629-2.663.955-.291.107-.311.249-.083.461.271.252.545.5.826.741a18.155,18.155,0,0,0,3.382,2.36.46.46,0,0,0,.326.036c.312-.109.611-.253.918-.374.166-.066.2-.142.089-.3a36.365,36.365,0,0,1-2.417-3.778c-.039-.071-.124-.116-.169-.156m9.529,4.613a2.105,2.105,0,0,0,.27-.122c.648-.4,1.328-.763,1.931-1.224.785-.6,1.512-1.277,2.255-1.931.179-.158.158-.251-.03-.336a14.659,14.659,0,0,0-2.811-.944.2.2,0,0,0-.263.118,36.833,36.833,0,0,1-2.343,3.652c-.2.279-.174.353.137.472.176.067.349.145.525.212.1.039.209.065.33.1m-3.841,1.69a17.685,17.685,0,0,0,3.863-.432c.073-.017.2-.091.193-.115a.382.382,0,0,0-.134-.242,9.716,9.716,0,0,0-1.28-.651,7.922,7.922,0,0,0-5.323-.088,12.435,12.435,0,0,0-1.577.738c-.062.03-.136.143-.121.194.019.066.118.113.188.16a.313.313,0,0,0,.113.034,19.693,19.693,0,0,0,4.079.4m5.164-.731.045-.042c.083-.022.167-.043.25-.067a17.838,17.838,0,0,0,4.048-1.725c.508-.3,1-.626,1.486-.956.217-.147.2-.281-.022-.407-.48-.27-.965-.531-1.444-.8a.414.414,0,0,0-.549.068c-.607.56-1.2,1.143-1.847,1.65-.73.571-1.519,1.066-2.276,1.6-.074.052-.165.216-.145.24a5.352,5.352,0,0,0,.455.439m-14.756-4.076a2.371,2.371,0,0,0-.294.11q-.652.355-1.3.72c-.349.2-.358.347-.027.575a19.026,19.026,0,0,0,5.431,2.58.589.589,0,0,0,.547-.106c.249-.172.244-.338-.006-.5-.5-.319-1-.63-1.481-.967a19.527,19.527,0,0,1-2.643-2.24,2.075,2.075,0,0,0-.227-.174" transform="translate(-20.239 -92.407)" fill="#105bab"/>
    <path id="Path_83" data-name="Path 83" d="M37.048,9.131c.091-.217.159-.382.228-.545.115-.268.233-.534.345-.8.054-.129.028-.21-.127-.264q-1.516-.527-3.024-1.075a.263.263,0,0,0-.345.09c-.575.729-1.182,1.435-1.715,2.193a.845.845,0,0,1-.992.379,5.315,5.315,0,0,1,.291-.51c.531-.733,1.07-1.459,1.607-2.187.051-.07.116-.13.162-.2a.181.181,0,0,0-.072-.293c-.584-.326-1.168-.653-1.747-.988-.172-.1-.29-.015-.4.085-.7.646-1.424,1.268-2.082,1.953a23.906,23.906,0,0,0-1.55,1.872A.529.529,0,0,1,27.1,9.1a2.226,2.226,0,0,1-.368-.039A19.534,19.534,0,0,1,41.515.109,19.9,19.9,0,0,1,60.321,9.017a.719.719,0,0,1-.889-.183A17.95,17.95,0,0,0,55.8,5.01c-.29-.229-.31-.222-.623-.036-.467.277-.939.546-1.411.814-.238.135-.276.259-.106.488s.387.455.561.7c.48.669.948,1.347,1.42,2.022.008.011.005.03.008.045a.642.642,0,0,1-.884-.214c-.606-.784-1.228-1.556-1.841-2.335a.278.278,0,0,0-.367-.094q-1.518.554-3.046,1.082c-.139.048-.177.123-.131.245.1.257.2.51.3.765l.242.6a5.812,5.812,0,0,1-.614-.007.3.3,0,0,1-.176-.155c-.17-.328-.329-.662-.489-1a.241.241,0,0,0-.322-.146,23.668,23.668,0,0,1-4.114.538c-.286.02-.314.044-.323.336-.015.467-.015.458-.492.438-.173-.007-.221-.086-.217-.232.017-.67-.1-.551-.6-.579a22.235,22.235,0,0,1-3.86-.483.315.315,0,0,0-.433.213c-.117.275-.272.534-.379.813a.412.412,0,0,1-.486.3c-.1-.011-.2,0-.371,0m6.118-3.676h-.008c0-.645,0-1.291,0-1.936,0-.181-.061-.269-.253-.286-.423-.039-.844-.092-1.265-.15a.321.321,0,0,0-.34.148c-.585.829-1.181,1.65-1.756,2.484a11.23,11.23,0,0,0-.585,1c-.18.33-.131.434.227.5.456.081.913.172,1.373.216.78.075,1.564.116,2.347.172.207.015.267-.077.263-.28-.012-.621,0-1.243,0-1.865m.727-.049h.024c0,.653,0,1.306,0,1.959,0,.209.074.288.295.264.4-.043.8-.033,1.2-.088.848-.118,1.692-.263,2.538-.4.165-.027.235-.09.138-.27a23.047,23.047,0,0,0-2.446-3.666.4.4,0,0,0-.3-.111c-.4.04-.794.115-1.192.16-.187.021-.257.1-.255.285.006.622,0,1.243,0,1.865m3.582-3.093a.537.537,0,0,0-.091.016c-.312.13-.626.257-.935.4-.156.07-.107.179-.034.291q1.2,1.851,2.4,3.707a.238.238,0,0,0,.3.132,15.835,15.835,0,0,0,2.81-.958c.216-.093.244-.21.073-.373-.336-.321-.673-.641-1.029-.938A15.246,15.246,0,0,0,47.7,2.4c-.078-.036-.16-.061-.223-.085M37.991,6.929a1.364,1.364,0,0,0,.207-.22c.456-.745.892-1.5,1.36-2.238.291-.457.629-.885.944-1.326.178-.249.146-.36-.134-.474-.218-.089-.438-.176-.653-.273a.428.428,0,0,0-.419.024,20.473,20.473,0,0,0-4.22,3.122c-.2.189-.172.333.094.428.785.278,1.573.549,2.36.82.133.046.271.081.46.137M43.481.664a16.934,16.934,0,0,0-3.977.4.91.91,0,0,0-.243.145c.059.082.1.2.179.242a10.085,10.085,0,0,0,1.3.659,7.864,7.864,0,0,0,3.949.375,7.076,7.076,0,0,0,2.8-1A1.071,1.071,0,0,0,47.7,1.2a1.139,1.139,0,0,0-.279-.154A16.778,16.778,0,0,0,43.481.664m-5.338.725-.041.052a2.1,2.1,0,0,0-.278.051c-.2.065-.4.143-.6.211a20.17,20.17,0,0,0-4.545,2.222,2.449,2.449,0,0,0-.369.292.182.182,0,0,0,.044.326c.5.28,1,.563,1.5.838a.377.377,0,0,0,.483-.076c.7-.62,1.4-1.248,2.137-1.818.653-.5,1.359-.937,2.046-1.4.114-.076.207-.188.123-.284a3.734,3.734,0,0,0-.508-.419m14.78,4.017a1.349,1.349,0,0,0,.216-.072c.5-.283,1-.565,1.5-.856.157-.092.157-.226,0-.337-.178-.13-.366-.247-.55-.367a18.306,18.306,0,0,0-5-2.3.6.6,0,0,0-.616.167.226.226,0,0,0,.037.4c.247.154.5.3.747.453a21.461,21.461,0,0,1,3.4,2.735,1.626,1.626,0,0,0,.264.177" transform="translate(-20.092 0)" fill="#105bab"/>
    <path id="Path_84" data-name="Path 84" d="M8.057,188.391H3.966v-.4c0-1.344,1.057-1.918,1.935-2.552.524-.364.946-.752.946-1.234a.736.736,0,0,0-.794-.777.842.842,0,0,0-.9.845H3.983a1.97,1.97,0,0,1,2.1-1.986,1.806,1.806,0,0,1,1.927,1.851,2.428,2.428,0,0,1-1.268,2.113c-.372.262-1.014.617-1.166,1H8.057Z" transform="translate(-2.981 -136.993)" fill="#105bab"/>
    <path id="Path_85" data-name="Path 85" d="M23.309,188.7l2.713-4.877H23.216V182.7H27.4v1l-2.781,5Z" transform="translate(-17.447 -137.3)" fill="#105bab"/>
    <path id="Path_86" data-name="Path 86" d="M41.779,188.7l2.713-4.877H41.685V182.7h4.184v1l-2.781,5Z" transform="translate(-31.327 -137.3)" fill="#105bab"/>
    <path id="Path_87" data-name="Path 87" d="M60.733,186.109v-1.454a2.239,2.239,0,1,1,4.471,0v1.454a2.24,2.24,0,1,1-4.471,0m3.313,0v-1.454c0-.778-.431-1.225-1.073-1.225a1.078,1.078,0,0,0-1.082,1.225v1.454a1.085,1.085,0,0,0,1.082,1.234c.642,0,1.073-.456,1.073-1.234" transform="translate(-45.642 -136.993)" fill="#105bab"/>
    <path id="Path_88" data-name="Path 88" d="M81.8,183.838H80.529l.845-1.141h1.581v6H81.8Z" transform="translate(-60.518 -137.299)" fill="#105bab"/>
    <path id="Path_89" data-name="Path 89" d="M102.4,190.277a.837.837,0,0,1,.845-.845.845.845,0,0,1,0,1.69.837.837,0,0,1-.845-.845m0,2.7a.837.837,0,0,1,.845-.845.845.845,0,1,1,0,1.69.837.837,0,0,1-.845-.845" transform="translate(-76.954 -142.361)" fill="#105bab"/>
    <path id="Path_90" data-name="Path 90" d="M124.142,188.391h-4.091v-.4c0-1.344,1.057-1.918,1.935-2.552.524-.364.946-.752.946-1.234a.736.736,0,0,0-.794-.777.842.842,0,0,0-.9.845h-1.166a1.97,1.97,0,0,1,2.1-1.986,1.806,1.806,0,0,1,1.927,1.851,2.428,2.428,0,0,1-1.268,2.113c-.372.262-1.014.617-1.166,1h2.485Z" transform="translate(-90.22 -136.993)" fill="#105bab"/>
    <path id="Path_91" data-name="Path 91" d="M139.881,186.109v-1.454a2.239,2.239,0,1,1,4.471,0v1.454a2.24,2.24,0,1,1-4.471,0m3.313,0v-1.454c0-.778-.431-1.225-1.073-1.225a1.078,1.078,0,0,0-1.082,1.225v1.454a1.085,1.085,0,0,0,1.082,1.234c.642,0,1.073-.456,1.073-1.234" transform="translate(-105.122 -136.993)" fill="#105bab"/>
    <path id="Path_92" data-name="Path 92" d="M160.944,183.838h-1.268l.845-1.141h1.58v6h-1.158Z" transform="translate(-119.999 -137.299)" fill="#105bab"/>
    <path id="Path_93" data-name="Path 93" d="M175.26,186.278a1.885,1.885,0,0,1-1.809-1.919,2.1,2.1,0,0,1,4.192,0,2.574,2.574,0,0,1-.7,1.6l-1.792,2.434h-1.437Zm1.217-1.935a.93.93,0,1,0-1.859,0,.93.93,0,1,0,1.859,0" transform="translate(-130.351 -136.993)" fill="#105bab"/>
  </g>
</svg>
