<svg id="Component_8_4" data-name="Component 8 – 4" xmlns="http://www.w3.org/2000/svg" xmlns:xlink="http://www.w3.org/1999/xlink" width="25" height="32" viewBox="0 0 12.769 12.769">
  <defs>
    <linearGradient id="linear-gradient" x1="0.854" y1="0.146" x2="0.146" y2="0.854" gradientUnits="objectBoundingBox">
      <stop offset="0" stop-color="#007ab5"/>
      <stop offset="1" stop-color="#0046e5"/>
    </linearGradient>
  </defs>
  <circle id="Ellipse_15" data-name="Ellipse 15" cx="6.385" cy="6.385" r="6.385" fill="url(#linear-gradient)"/>
  <path id="Path_59" data-name="Path 59" d="M-48.3-37.8h1.236v3.972H-48.3Zm.618-1.974a.716.716,0,0,1,.716.715.716.716,0,0,1-.716.717.717.717,0,0,1-.717-.717.716.716,0,0,1,.717-.715" transform="translate(52.008 42.994)" fill="#fff"/>
  <path id="Path_60" data-name="Path 60" d="M-43.567-35.378h1.184v.543h.016a1.3,1.3,0,0,1,1.169-.642c1.25,0,1.48.822,1.48,1.892v2.179h-1.234v-1.931c0-.461-.009-1.054-.642-1.054s-.741.5-.741,1.02v1.965h-1.234Z" transform="translate(49.286 40.574)" fill="#fff"/>
</svg>
