<svg id="Component_22_1" data-name="Component 22 – 1" xmlns="http://www.w3.org/2000/svg" xmlns:xlink="http://www.w3.org/1999/xlink" width="78.497" height="52.243" viewBox="0 0 54.497 52.243">
  <defs>
    <clipPath id="clip-path">
      <rect id="Rectangle_11" data-name="Rectangle 11" width="54.497" height="52.243" fill="none"/>
    </clipPath>
  </defs>
  <g id="Group_29" data-name="Group 29" clip-path="url(#clip-path)">
    <path id="Path_95" data-name="Path 95" d="M6.585,64.766a5.672,5.672,0,0,0,.749-.519,2.868,2.868,0,0,1,1.85-.907,2.55,2.55,0,0,1,1.079.006,2.815,2.815,0,0,0,1.146,0,1.09,1.09,0,0,0,.571-.252,1.109,1.109,0,0,1,1.318-.249c.723.3,1.444.605,2.17.9a.675.675,0,0,0,.4.074,1.359,1.359,0,0,1,1.347.451,8.665,8.665,0,0,1,1.672,2.094.982.982,0,0,0,1.6.124.511.511,0,0,1,.351-.17,2.109,2.109,0,0,0,1.6-.492,1.051,1.051,0,0,1,.164-.1c.332-.142.672-.41,1-.394a2.707,2.707,0,0,1,1.959.758c.251.269.475.631.958.484.061-.018.182.086.243.159a3.034,3.034,0,0,0,2.106.889,21.069,21.069,0,0,0,2.578.091.668.668,0,0,0,.427-.177c.35-.34.684-.7,1-1.065a2.642,2.642,0,0,1,2.028-.932,6.7,6.7,0,0,0,.939-.165,11.616,11.616,0,0,1,1.351-.212,18.047,18.047,0,0,1,2,.01,13.8,13.8,0,0,1,1.627.223,3.888,3.888,0,0,1,1.825.856c.118.1.357.057.54.071a2,2,0,0,1,.249-.012c.358.078.713.167,1.108.261.139-.287.248-.56.4-.809a.569.569,0,0,1,.472-.282c.26-.034.514-.333.711-.566a2.224,2.224,0,0,1,1.178-.562c.345.006.747.117.864-.444.033-.158.393-.248.6-.368.01-.005.026,0,.038,0a1.453,1.453,0,0,1,1.617.853,5.672,5.672,0,0,0,.788,1.138,3.847,3.847,0,0,1,.891,2.165c.058.584.119,1.168.219,1.746a.543.543,0,0,0,.328.328,2.317,2.317,0,0,0,.573.024.77.77,0,0,1,.744.439c.086.178.318.286.514.45-.071.535-.138,1.124-.235,1.709-.02.123-.149.229-.2.3a4.449,4.449,0,0,1,.293.671.383.383,0,0,1-.161.316c-.4.243-.811.457-1.22.68a1.079,1.079,0,0,0-.241.118c-.371.359-.753.6-1.221.119l-.839,1.251c-.021.032-.034.082-.063.095-.718.313-.677,1.148-1.128,1.645a.379.379,0,0,0-.07.287,3.8,3.8,0,0,1-.38,1.863.737.737,0,0,1-.431.362c-.329.12-.539.269-.454.663a.746.746,0,0,1-.058.289c-.02.085-.088.214-.057.247.417.423-.06.831-.029,1.248.007.1-.267.317-.409.314-.556-.012-.869.384-1.2.579a2.089,2.089,0,0,1,.079.705c-.137.478.019,1.047-.428,1.436-.043.037-.042.146-.033.218.033.286.1.575-.321.641-.05.008-.075.15-.121.224a.668.668,0,0,1-.718.392c-.206-.04-.351,0-.427.207a.705.705,0,0,1-.657.5c-.3.025-.369.208-.324.489.058.366.245.752-.092,1.087.148.7-.455,1.061-.685,1.59a5.3,5.3,0,0,0-.219,1.068c-.135.109-.343.255-.525.428a1.092,1.092,0,0,0-.316,1.256c.1.264.057.4-.283.465-.247.049-.454.3-.677.469-.319.237-.1.581-.17.868-.078.321-.125.662-.55.724a.209.209,0,0,0-.132.11c-.134.3-.359.33-.64.247-.26-.077-.523-.142-.828-.223,0-.06.005-.187,0-.314-.016-.305-.149-.381-.436-.254-.191.085-.342.09-.409-.165a.493.493,0,0,0-.177-.271c-.19-.125-.313-.243-.213-.5.022-.055-.085-.189-.162-.249-.334-.261-.678-.508-1.046-.779-.03.185-.068.4-.1.623a.43.43,0,0,1-.465.411c-.231,0-.463,0-.693.02-.339.029-.564-.046-.511-.455.006-.05-.044-.108-.1-.243-.317.322-.6.6-.879.9-.215.229-.418.466-.8.239l-.387,1.3-.444-.048c-.117.252-.278.464-.586.316-.212.213-.062.714-.581.553a1.541,1.541,0,0,1-.855,1.072,5.62,5.62,0,0,0-1.355,1.18.685.685,0,0,0-.04.891.559.559,0,0,1,.09.6c-.145.488-.2,1.006-.373,1.481a8.529,8.529,0,0,1-.641,1.156c-.081.144-.156.291-.19.355a2.37,2.37,0,0,1-.367.51.544.544,0,0,1-.431.085,2.462,2.462,0,0,1-.525-.317c.01.2.021.393.029.59.018.406-.123.561-.53.574-.372.012-.749-.012-1.116.033-.5.062-1,.173-1.5.267-.126.024-.247.07-.373.089a3.588,3.588,0,0,0-1.506.295c-.075.047-.2.018-.292.024l-.09-.365c-.176.059-.352.116-.528.177a3.106,3.106,0,0,1-.445.156c-.322.058-.649.092-.974.133-.4.05-.794.091-1.19.147-.377.053-.753.112-1.126.185a1.4,1.4,0,0,1-1.253-.335c-.514-.459-1.032-.919-1.5-1.425a2.781,2.781,0,0,1-.523-.929c-.247-.682-.431-1.385-.663-2.072a1.192,1.192,0,0,0-.307-.47c-.2-.186-.434-.291-.414-.659.012-.212-.209-.447-.348-.655a7.285,7.285,0,0,0-.778-1.071c-.4-.411-.879-.749-1.316-1.127A3.678,3.678,0,0,0,7.1,97.172a14.7,14.7,0,0,0-3.492-.183c-1.015.052-2.028.143-3.043.2-.148.009-.41-.027-.431-.1a1.136,1.136,0,0,1,.025-.582c.072-.267.2-.52.293-.781.016-.044.013-.136-.01-.147-.467-.228-.064-.716-.3-1.025-.041-.053.111-.253.141-.385a3.14,3.14,0,0,0,.09-.58c-.006-.25-.088-.5-.093-.747,0-.132.108-.262.135-.4s.058-.3-.005-.375A1.266,1.266,0,0,1,.2,91.2a2.3,2.3,0,0,0-.2-.838c.108-.443.229-.884.315-1.331a.685.685,0,0,0-.1-.4.751.751,0,0,1,.074-.908.705.705,0,0,0,.064-.394c.009-.428-.182-.845.023-1.291a1.96,1.96,0,0,0,.065-.831c-.006-.226.1-.3.292-.309a.5.5,0,0,1,.153-.011c.775.215,1.047-.3,1.237-.881.054-.166-.039-.374-.029-.561a.743.743,0,0,1,.118-.44c.267-.282.305-.757.751-.89.033-.01.047-.134.046-.205-.006-.406.1-.524.511-.574a.682.682,0,0,0,.674-.724.575.575,0,0,1,.14-.334.359.359,0,0,0,0-.591.685.685,0,0,1,.043-.94c.137-.1.37-.057.56-.079l.113.12c.079-.372.3-.791.2-1.107a5.916,5.916,0,0,1-.4-1.561c-.025-.576-.554-.879-.932-1.242a.576.576,0,0,1-.178-.611,4.317,4.317,0,0,1,.613-1.646.419.419,0,0,0-.011-.362.463.463,0,0,1,.023-.6.389.389,0,0,0,.041-.337,1.453,1.453,0,0,1-.042-.893,4.557,4.557,0,0,0,.008-1.112.576.576,0,0,1,.239-.519,16.438,16.438,0,0,0,1.328-1.266,2.737,2.737,0,0,0,.637-2.115c-.016-.242,0-.486,0-.658" transform="translate(0 -54.521)" fill="#009444"/>
    <path id="Path_96" data-name="Path 96" d="M75.282,5.743,72.674,2.426V5.743H71.635V.657h.9l2.608,3.317V.657h1.039V5.743Z" transform="translate(-62.264 -0.571)"/>
    <path id="Path_97" data-name="Path 97" d="M115.008.658h1.676A2.56,2.56,0,0,1,119.3,3.2a2.56,2.56,0,0,1-2.615,2.543h-1.676Zm1.676,4.134A1.534,1.534,0,0,0,118.253,3.2a1.534,1.534,0,0,0-1.569-1.59h-.638V4.792Z" transform="translate(-99.963 -0.572)"/>
    <path id="Path_98" data-name="Path 98" d="M155.909,4.081h-.652V5.744h-1.039V.657h1.691a1.714,1.714,0,1,1,0,3.424m-.014-2.45h-.638V3.107h.638a.739.739,0,1,0,0-1.476" transform="translate(-134.044 -0.571)"/>
    <path id="Path_99" data-name="Path 99" d="M186.583.657h1.949a1.476,1.476,0,0,1,1.562,1.5,1.3,1.3,0,0,1-1.046,1.325l1.827,2.257h-1.254L187.873,3.6h-.251V5.744h-1.039Zm1.827,2.056c.394,0,.652-.208.652-.552s-.258-.552-.652-.552h-.788v1.1Z" transform="translate(-162.175 -0.571)"/>
    <path id="Path_100" data-name="Path 100" d="M235.286,5.173h-3.467V4.836c0-1.139.9-1.626,1.641-2.164.444-.308.8-.638.8-1.046a.624.624,0,0,0-.673-.659.714.714,0,0,0-.767.716h-.989A1.67,1.67,0,0,1,233.61,0a1.53,1.53,0,0,1,1.633,1.569,2.057,2.057,0,0,1-1.075,1.791c-.315.222-.86.523-.989.845h2.106Z" transform="translate(-201.494)"/>
    <path id="Path_101" data-name="Path 101" d="M263.746,3.237V2.005a1.9,1.9,0,1,1,3.79,0V3.237a1.9,1.9,0,1,1-3.79,0m2.808,0V2.005c0-.659-.365-1.039-.91-1.039a.914.914,0,0,0-.917,1.039V3.237a.92.92,0,0,0,.917,1.046c.544,0,.91-.387.91-1.046" transform="translate(-229.245 0.001)"/>
    <path id="Path_102" data-name="Path 102" d="M296.694,1.624h-1.075l.716-.967h1.34V5.743h-.982Z" transform="translate(-256.948 -0.571)"/>
    <path id="Path_103" data-name="Path 103" d="M319.331,3.381A1.6,1.6,0,0,1,317.8,1.754a1.777,1.777,0,0,1,3.554,0,2.182,2.182,0,0,1-.595,1.354l-1.519,2.063H318.02Zm1.032-1.641a.788.788,0,1,0-1.576,0,.788.788,0,1,0,1.576,0" transform="translate(-276.226 0.001)"/>
  </g>
</svg>
