<svg xmlns="http://www.w3.org/2000/svg" width="398.504" height="205.165" viewBox="0 0 128.504 45.165">
  <g id="Group_30" data-name="Group 30" transform="translate(-54 -52.096)">
    <g id="Component_15_1" data-name="Component 15 – 1" transform="translate(54 52.096)">
      <g id="Group_1" data-name="Group 1">
        <path id="Path_1" data-name="Path 1" d="M7.035-519.4a8.1,8.1,0,0,0-2.111.1,8.354,8.354,0,0,0-3.433,1.427,8.333,8.333,0,0,0-3.421,5.428H2.384a4.207,4.207,0,0,1,5.335-2.656,4.2,4.2,0,0,1,2.656,2.656h4.3A8.444,8.444,0,0,0,7.035-519.4Z" transform="translate(2.118 537.742)" fill="#00de66"/>
        <path id="Path_2" data-name="Path 2" d="M13.946-542.036l-2.285,1.067a2.187,2.187,0,0,0,.963-2.946,2.3,2.3,0,0,0-.684-.812,8.47,8.47,0,0,0-11.958.592,8.46,8.46,0,0,0,.591,11.958,8.46,8.46,0,0,0,11.958-.591A8.429,8.429,0,0,0,13.946-542.036Zm-6.019,7.469a4.228,4.228,0,0,1-5.613-2.053,4.228,4.228,0,0,1,2.053-5.613,4.244,4.244,0,0,1,4.616.708,2.228,2.228,0,0,0,2.587.6l-1.589.742A4.219,4.219,0,0,1,7.927-534.567Z" transform="translate(2.212 546.917)" fill="#00de66"/>
      </g>
      <g id="Group_2" data-name="Group 2" transform="translate(28.221 5.284)">
        <path id="_Path_5" data-name=" Path 5" d="M1158.472,705.268l2.471,6.01h.5l2.471-6.01h3l-3.02,7.129v.376l3.02,7.18h-3l-2.471-6.051h-.5l-2.471,6.051h-2.99l3.01-7.18V712.4l-3.01-7.129Z" transform="translate(-1066.63 -705.237)" fill="#093a51" fill-rule="evenodd"/>
        <path id="_Path_6" data-name=" Path 6" d="M1142.409,705.268h2.766v14.685h-2.766V705.268Z" transform="translate(-1061.194 -705.237)" fill="#093a51" fill-rule="evenodd"/>
        <path id="_Path_7" data-name=" Path 7" d="M1117.934,705.233h9.407v2.644H1120.7v3.366h6.508v2.664H1120.7v6.051h-2.766Z" transform="translate(-1051.017 -705.222)" fill="#093a51" fill-rule="evenodd"/>
        <path id="_Path_8" data-name=" Path 8" d="M1084.112,719.95V705.285h4.566l2.837,11.512h.091l2.8-11.512h4.586V719.95h-2.695V708.336h-.081l-3,11.613h-3.336l-2.99-11.613h-.091V719.95Z" transform="translate(-1036.954 -705.244)" fill="#093a51" fill-rule="evenodd"/>
        <path id="Path_3" data-name="Path 3" d="M1063.565,705.233h-5.217l-3.5,14.715h2.9l.722-3.162h4.993l.722,3.162h2.878Zm-4.515,8.929,1.719-7.536h.376l1.709,7.525Z" transform="translate(-1024.787 -705.222)" fill="#093a51" fill-rule="evenodd"/>
        <path id="_Path_9" data-name=" Path 9" d="M1030.131,705.268h9.285v2.644H1032.9v3.366h6.254V713.9H1032.9v3.407h6.763v2.644h-9.529Z" transform="translate(-1014.509 -705.237)" fill="#093a51" fill-rule="evenodd"/>
        <path id="_Path_10" data-name=" Path 10" d="M1011.233,709.852a2,2,0,0,0-.661-1.475,2.58,2.58,0,0,0-1.851-.62,2.747,2.747,0,0,0-1.586.407,1.281,1.281,0,0,0-.58,1.118,1.421,1.421,0,0,0,.143.651,1.267,1.267,0,0,0,.488.518,3.941,3.941,0,0,0,.925.407,14.578,14.578,0,0,0,1.464.345,7.507,7.507,0,0,1,3.4,1.353,3.443,3.443,0,0,1,1.18,2.817v.244a4.333,4.333,0,0,1-.356,1.79,3.839,3.839,0,0,1-1.017,1.363,4.413,4.413,0,0,1-1.607.864,7.7,7.7,0,0,1-4.6-.091,5.017,5.017,0,0,1-1.759-1.088,4.431,4.431,0,0,1-1.068-1.647,5.427,5.427,0,0,1-.356-2.054v-.61h2.674v.478a2.8,2.8,0,0,0,.732,2.034,3.046,3.046,0,0,0,2.288.762,2.517,2.517,0,0,0,1.79-.539,1.593,1.593,0,0,0,.58-1.251,1.725,1.725,0,0,0-.122-.651,1.29,1.29,0,0,0-.417-.56,2.867,2.867,0,0,0-.834-.448,7.8,7.8,0,0,0-1.333-.346,13.087,13.087,0,0,1-1.962-.478,5.278,5.278,0,0,1-1.546-.783,3.166,3.166,0,0,1-1.017-1.21,4,4,0,0,1-.356-1.789v-.122a3.669,3.669,0,0,1,.356-1.607,3.932,3.932,0,0,1,.987-1.281,4.653,4.653,0,0,1,1.525-.834,6.7,6.7,0,0,1,2-.3,6.423,6.423,0,0,1,2.207.356,4.644,4.644,0,0,1,1.628.966,3.841,3.841,0,0,1,.986,1.393,4.021,4.021,0,0,1,.336,1.647v.722h-2.675l.01-.447Z" transform="translate(-1003.391 -705.215)" fill="#093a51" fill-rule="evenodd"/>
      </g>
    </g>
    <g id="Group_19" data-name="Group 19" transform="translate(21 -62)">
      <text id="UK" transform="translate(37 156.261)" fill="#404040" font-size="7" font-family="AvenirNext-Regular, Avenir Next"><tspan x="0" y="0">UK</tspan></text>
      <text id="U.A.E" transform="translate(98 156.261)" fill="#404040" font-size="7" font-family="AvenirNext-Regular, Avenir Next"><tspan x="0" y="0">U.A.E</tspan></text>
      <text id="NIGERIA" transform="translate(58 156.261)" fill="#404040" font-size="7" font-family="AvenirNext-Regular, Avenir Next"><tspan x="0" y="0">NIGERIA</tspan></text>
      <text id="UGANDA" transform="translate(127 156.261)" fill="#404040" font-size="7" font-family="AvenirNext-Regular, Avenir Next"><tspan x="0" y="0">UGANDA</tspan></text>
      <circle id="Ellipse_16" data-name="Ellipse 16" cx="1.5" cy="1.5" r="1.5" transform="translate(90 152.722)" fill="#00de66"/>
      <circle id="Ellipse_17" data-name="Ellipse 17" cx="1.5" cy="1.5" r="1.5" transform="translate(50 152.722)" fill="#00de66"/>
      <circle id="Ellipse_18" data-name="Ellipse 18" cx="1.5" cy="1.5" r="1.5" transform="translate(120 152.722)" fill="#00de66"/>
    </g>
  </g>
</svg>
