<svg id="Component_6_4" data-name="Component 6 – 4" xmlns="http://www.w3.org/2000/svg" xmlns:xlink="http://www.w3.org/1999/xlink" width="25" height="25" viewBox="0 0 12.769 12.769">
  <defs>
    <linearGradient id="linear-gradient" x1="0.854" y1="0.146" x2="0.146" y2="0.854" gradientUnits="objectBoundingBox">
      <stop offset="0" stop-color="#3cf"/>
      <stop offset="1" stop-color="#337fff"/>
    </linearGradient>
  </defs>
  <circle id="Ellipse_12" data-name="Ellipse 12" cx="6.385" cy="6.385" r="6.385" fill="url(#linear-gradient)"/>
  <path id="Path_52" data-name="Path 52" d="M54.409-38.425a2.878,2.878,0,0,1-.7.2c.113-.019.279-.224.346-.307a1.293,1.293,0,0,0,.234-.427c.006-.012.01-.027,0-.036a.039.039,0,0,0-.037,0,3.576,3.576,0,0,1-.835.319.056.056,0,0,1-.058-.015.692.692,0,0,0-.073-.074,1.47,1.47,0,0,0-.4-.248,1.408,1.408,0,0,0-.62-.1,1.485,1.485,0,0,0-.589.166,1.516,1.516,0,0,0-.475.388,1.452,1.452,0,0,0-.283.568,1.54,1.54,0,0,0-.015.6c0,.034,0,.038-.029.034A4.459,4.459,0,0,1,48-38.814c-.034-.038-.052-.038-.079,0a1.454,1.454,0,0,0,.248,1.719c.056.053.114.107.176.155a1.461,1.461,0,0,1-.553-.155c-.034-.021-.051-.009-.053.029a.887.887,0,0,0,.009.165,1.472,1.472,0,0,0,.907,1.173.86.86,0,0,0,.184.056,1.632,1.632,0,0,1-.543.017c-.04-.008-.055.012-.04.05a1.528,1.528,0,0,0,1.141.955c.052.009.1.009.155.021,0,0-.006,0-.009.009a1.809,1.809,0,0,1-.779.413,2.8,2.8,0,0,1-1.183.152c-.063-.01-.077-.009-.094,0s0,.026.018.042c.081.053.163.1.247.146a3.89,3.89,0,0,0,.791.317,4.213,4.213,0,0,0,4.09-.956,4.291,4.291,0,0,0,1.132-3.131c0-.045.053-.07.085-.094a2.764,2.764,0,0,0,.556-.579.176.176,0,0,0,.037-.111v-.006C54.438-38.443,54.438-38.438,54.409-38.425Z" transform="translate(-44.497 42.622)" fill="#fff"/>
</svg>
